<?xml version="1.0" encoding="utf-8"?>
<!-- Generator: Adobe Illustrator 23.0.4, SVG Export Plug-In . SVG Version: 6.00 Build 0)  -->
<svg version="1.0" id="Layer_1" xmlns="http://www.w3.org/2000/svg" xmlns:xlink="http://www.w3.org/1999/xlink" x="0px" y="0px"
	 viewBox="0 0 214.63 97.92" style="enable-background:new 0 0 214.63 97.92;" xml:space="preserve">
<style type="text/css">
	.st0{fill:#383838;}
	.st1{fill:#ADADAD;}
</style>
<g>
	<path class="st0" d="M156.56,59.92c0,2.51-0.91,4.65-2.74,6.42c-1.83,1.77-3.98,2.65-6.46,2.65c-2.7,0-4.96-0.89-6.77-2.68
		c-1.81-1.78-2.72-3.92-2.72-6.4V14.79h-8.7v45.38c-0.02,2.48-0.93,4.6-2.74,6.36c-1.83,1.77-3.98,2.65-6.46,2.65
		c-2.7,0-4.96-0.89-6.77-2.68c-1.81-1.78-2.72-3.92-2.72-6.4v-6.11h-8.7v6.45c0.08,4.99,1.78,9.14,5.1,12.46
		c3.32,3.32,7.69,4.98,13.13,4.98c5.18,0,9.43-1.66,12.75-4.98c0.29-0.29,0.56-0.59,0.83-0.9c0.22,0.24,0.44,0.48,0.68,0.71
		c3.32,3.32,7.69,4.98,13.13,4.98c5.18,0,9.43-1.66,12.75-4.98c3.29-3.32,4.98-7.47,5.06-12.46V30.2h-8.65V59.92z"/>
	<path class="st0" d="M87.15,60.01c0,2.51-0.91,4.65-2.74,6.42c-1.83,1.77-3.98,2.65-6.46,2.65c-2.7,0-4.96-0.89-6.77-2.68
		c-1.81-1.78-2.72-3.92-2.72-6.4V30.2h-8.7v0.27h-0.01v29.72c0,2.51-0.91,4.65-2.74,6.42c-1.83,1.77-3.98,2.65-6.46,2.65H0.28v8.7
		h50.4v0c5.14-0.02,9.37-1.68,12.67-4.97c0.29-0.29,0.57-0.6,0.83-0.9c0.22,0.24,0.45,0.49,0.68,0.72
		c3.32,3.32,7.69,4.98,13.13,4.98c5.18,0,9.43-1.66,12.75-4.98c3.29-3.32,4.98-7.47,5.06-12.46V30.29h-8.65V60.01z"/>
	<rect x="101.79" y="15.45" class="st0" width="8.7" height="33.05"/>
	
		<rect x="178.35" y="86.76" transform="matrix(0.8819 -0.4714 0.4714 0.8819 -19.7722 100.3806)" class="st0" width="24.25" height="5.78"/>
	<path class="st0" d="M207.65,37.19c-4.65-4.65-10.26-6.98-16.81-6.98c-5.63,0-10.56,1.7-14.8,5.1c-0.7,0.59-1.38,1.21-2.05,1.88
		c-0.28,0.28-1.07,1.16-2.38,2.63l4.35,4.39L198.74,67c-1.45,1.28-4.08,1.92-7.9,1.92v0h-19.23v9.01h19.24v-0.06
		c6.55,0,12.14-2.33,16.8-6.98c4.66-4.65,6.98-10.27,6.98-16.85C214.63,47.46,212.31,41.85,207.65,37.19z M204.6,60.61l-20.32-20.36
		c0.98-0.75,3.16-1.13,6.56-1.13c4.1,0,7.6,1.46,10.52,4.37c2.91,2.91,4.37,6.43,4.37,10.56C205.73,57.41,205.35,59.6,204.6,60.61z"
		/>
	
		<ellipse transform="matrix(0.9571 -0.2898 0.2898 0.9571 -19.9423 47.0052)" class="st0" cx="148.76" cy="90.84" rx="7.08" ry="7.08"/>
	<path class="st0" d="M86.08,83.77c-3.91-0.05-7.12,3.08-7.16,6.99c-0.05,3.91,3.08,7.12,6.99,7.16c3.91,0.05,7.12-3.08,7.16-6.99
		C93.11,87.02,89.98,83.81,86.08,83.77z"/>
	
		<ellipse transform="matrix(0.9056 -0.4242 0.4242 0.9056 -31.7498 39.0461)" class="st0" cx="71.84" cy="90.84" rx="7.08" ry="7.08"/>
	
		<ellipse transform="matrix(0.9571 -0.2898 0.2898 0.9571 -12.4804 12.7218)" class="st0" cx="36.72" cy="48.5" rx="7.08" ry="7.08"/>
	
		<ellipse transform="matrix(0.9056 -0.4242 0.4242 0.9056 -18.4432 14.1501)" class="st0" cx="22.56" cy="48.5" rx="7.08" ry="7.08"/>
</g>
<g>
	<path class="st1" d="M6.33,18.08V7.98h2.89v9.86c0,0.51,0.17,0.94,0.52,1.28c0.34,0.34,0.75,0.51,1.23,0.51
		c1.14,0,1.72-0.71,1.72-2.13V7.98h2.9v10.06c-0.05,1.23-0.5,2.27-1.35,3.12c-0.9,0.91-1.99,1.37-3.26,1.37
		c-1.28,0-2.34-0.45-3.17-1.34c-0.85,0.89-1.91,1.34-3.18,1.34c-1.28,0-2.38-0.46-3.28-1.37c-0.86-0.86-1.3-1.9-1.34-3.12V7.98h2.89
		v9.51c0,1.42,0.58,2.13,1.73,2.13c0.47,0,0.88-0.17,1.23-0.5C6.13,18.83,6.3,18.49,6.33,18.08z"/>
	<path class="st1" d="M23.96,19.08c0.48,0.43,1.36,0.64,2.64,0.64c1.38,0,2.55-0.48,3.53-1.45c0.12-0.13,0.37-0.42,0.74-0.86
		l2.89,1.03c-0.71,0.98-1.22,1.62-1.53,1.94c-1.55,1.55-3.43,2.33-5.62,2.33c-2.19,0-4.05-0.78-5.61-2.33
		c-1.55-1.55-2.33-3.43-2.33-5.62c0-2.19,0.78-4.07,2.33-5.62c1.55-1.55,3.42-2.33,5.61-2.33c1.88,0,3.52,0.57,4.94,1.7
		c0.23,0.2,0.46,0.4,0.68,0.63c0.09,0.09,0.36,0.39,0.8,0.88l-1.45,1.46L23.96,19.08z M28.79,10.15c-0.33-0.25-1.06-0.38-2.19-0.38
		c-1.37,0-2.54,0.49-3.51,1.46c-0.97,0.97-1.46,2.15-1.46,3.52c0,1.13,0.13,1.86,0.38,2.19L28.79,10.15z"/>
	<path class="st1" d="M39.99,20.55v1.79H37.1V0.01h2.89v8.95c1.39-1.44,3.02-2.16,4.87-2.16c2.19,0,4.07,0.78,5.61,2.33
		c1.55,1.55,2.32,3.43,2.32,5.62c0,2.19-0.77,4.07-2.32,5.62c-1.55,1.55-3.42,2.33-5.61,2.33C43.01,22.71,41.38,21.99,39.99,20.55z
		 M39.99,13.64v2.25c0.18,0.87,0.62,1.67,1.34,2.39c0.98,0.97,2.15,1.45,3.53,1.45c1.38,0,2.55-0.48,3.52-1.45
		c0.97-0.97,1.46-2.14,1.46-3.51c0-1.37-0.49-2.54-1.46-3.51c-0.97-0.98-2.15-1.46-3.52-1.46c-1.38,0-2.55,0.49-3.53,1.46
		C40.61,11.96,40.16,12.76,39.99,13.64z"/>
	<path class="st1" d="M59.53,0v22.33h-2.9V0H59.53z"/>
	<path class="st1" d="M66.82,2.66c0.4,0.39,0.6,0.87,0.6,1.44c0,0.57-0.2,1.05-0.6,1.44c-0.4,0.39-0.88,0.59-1.44,0.59
		c-0.55,0-1.02-0.2-1.42-0.59c-0.4-0.39-0.6-0.87-0.6-1.44c0-0.57,0.2-1.05,0.6-1.44c0.4-0.39,0.87-0.59,1.42-0.59
		C65.95,2.08,66.42,2.27,66.82,2.66z M66.84,7.98v14.35h-2.89V7.98H66.84z"/>
	<path class="st1" d="M73,7.98V2.59h2.89v5.38h2.58v2.89h-2.58v11.47H73V10.87h-2.58V7.98H73z"/>
	<path class="st1" d="M86.3,19.08c0.48,0.43,1.36,0.64,2.64,0.64c1.38,0,2.55-0.48,3.53-1.45c0.12-0.13,0.37-0.42,0.74-0.86
		l2.89,1.03c-0.71,0.98-1.22,1.62-1.53,1.94c-1.55,1.55-3.43,2.33-5.62,2.33c-2.19,0-4.05-0.78-5.61-2.33
		C81.77,18.82,81,16.95,81,14.76c0-2.19,0.78-4.07,2.33-5.62c1.55-1.55,3.42-2.33,5.61-2.33c1.88,0,3.52,0.57,4.94,1.7
		c0.23,0.2,0.46,0.4,0.68,0.63c0.09,0.09,0.36,0.39,0.8,0.88l-1.45,1.46L86.3,19.08z M91.12,10.15c-0.33-0.25-1.06-0.38-2.19-0.38
		c-1.37,0-2.54,0.49-3.51,1.46c-0.97,0.97-1.46,2.15-1.46,3.52c0,1.13,0.13,1.86,0.38,2.19L91.12,10.15z"/>
</g>
</svg>
